<mxfile host="app.diagrams.net" modified="2023-09-26T20:52:49.694Z" agent="Mozilla/5.0 (Windows NT 10.0; Win64; x64) AppleWebKit/537.36 (KHTML, like Gecko) Chrome/116.0.0.0 Safari/537.36 OPR/102.0.0.0" version="21.8.2" etag="6O12GRXS8cAuI39Oph9z" type="github">
  <diagram name="PÃ¡gina-1" id="KOxExw30USjScVi1ffa4">
    <mxGraphModel>
      <root>
        <mxCell id="0" />
        <mxCell id="1" parent="0" />
      </root>
    </mxGraphModel>
  </diagram>
</mxfile>
